<svg width="15" height="15" viewBox="0 0 15 15" fill="none" xmlns="http://www.w3.org/2000/svg">
<path d="M8.24954 7.497L13.8775 1.8635C13.9768 1.76372 14.0325 1.62866 14.0324 1.4879C14.0323 1.34713 13.9765 1.21215 13.877 1.1125C13.678 0.9145 13.3275 0.9135 13.1265 1.1135L7.50004 6.747L1.87154 1.112C1.67154 0.9145 1.32104 0.9155 1.12204 1.113C1.07265 1.1622 1.03355 1.22074 1.00702 1.28521C0.980493 1.34968 0.967073 1.41879 0.967541 1.4885C0.967541 1.6305 1.02254 1.7635 1.12204 1.862L6.75004 7.4965L1.12254 13.1315C1.02323 13.2314 0.967621 13.3667 0.967902 13.5076C0.968183 13.6484 1.02434 13.7835 1.12404 13.883C1.22054 13.9785 1.35704 14.0335 1.49804 14.0335H1.50104C1.64254 14.033 1.77904 13.9775 1.87354 13.881L7.50004 8.2475L13.1285 13.8825C13.228 13.9815 13.361 14.0365 13.502 14.0365C13.5718 14.0367 13.6408 14.0231 13.7053 13.9965C13.7697 13.9699 13.8283 13.9309 13.8776 13.8816C13.9269 13.8323 13.966 13.7737 13.9926 13.7092C14.0192 13.6448 14.0327 13.5757 14.0325 13.506C14.0325 13.3645 13.9775 13.231 13.8775 13.1325L8.24954 7.497Z" fill="#4169E1"/>
</svg>
