<svg width="191" height="190" viewBox="0 0 191 190" fill="none" xmlns="http://www.w3.org/2000/svg">
<rect x="1" y="0.5" width="189" height="189" rx="29.5" stroke="#4169E1"/>
<g clip-path="url(#clip0_48_101)">
<path d="M79.75 30H31V78.75H79.75V30ZM71.625 70.625H39.125V38.125H71.625V70.625Z" fill="#4169E1"/>
<path d="M47.25 46.25H63.5V62.5H47.25V46.25ZM31 160H79.75V111.25H31V160ZM39.125 119.375H71.625V151.875H39.125V119.375Z" fill="#4169E1"/>
<path d="M47.25 127.5H63.5V143.75H47.25V127.5ZM112.25 30V78.75H161V30H112.25ZM152.875 70.625H120.375V38.125H152.875V70.625Z" fill="#4169E1"/>
<path d="M128.5 46.25H144.75V62.5H128.5V46.25ZM47.25 86.875H31V103.125H55.375V95H47.25V86.875ZM87.875 103.125H104.125V119.375H87.875V103.125ZM55.375 86.875H71.625V95H55.375V86.875ZM104.125 127.5H87.875V135.625H96V143.75H104.125V135.625V127.5ZM79.75 86.875V95H71.625V103.125H87.875V86.875H79.75ZM96 62.5H104.125V78.75H96V62.5ZM104.125 95V103.125H120.375V86.875H96V95H104.125ZM87.875 78.75H96V86.875H87.875V78.75ZM104.125 143.75H120.375V160H104.125V143.75ZM87.875 143.75H96V160H87.875V143.75ZM104.125 119.375H112.25V127.5H104.125V119.375ZM104.125 54.375V38.125H96V30H87.875V62.5H96V54.375H104.125ZM128.5 143.75H136.625V160H128.5V143.75ZM128.5 127.5H144.75V135.625H128.5V127.5ZM120.375 135.625H128.5V143.75H120.375V135.625ZM112.25 127.5H120.375V135.625H112.25V127.5ZM144.75 111.25V119.375H152.875V127.5H161V111.25H152.875H144.75ZM152.875 135.625H144.75V160H161V143.75H152.875V135.625ZM112.25 111.25V119.375H136.625V103.125H120.375V111.25H112.25ZM128.5 86.875V95H144.75V103.125H161V86.875H144.75H128.5Z" fill="#4169E1"/>
</g>
<defs>
<clipPath id="clip0_48_101">
<rect width="130" height="130" fill="white" transform="translate(31 30)"/>
</clipPath>
</defs>
</svg>
